<?xml version="1.0" encoding="UTF-8" standalone="no"?>
<!-- Created with Inkscape (http://www.inkscape.org/) -->

<svg
   xmlns:dc="http://purl.org/dc/elements/1.1/"
   xmlns:cc="http://creativecommons.org/ns#"
   xmlns:rdf="http://www.w3.org/1999/02/22-rdf-syntax-ns#"
   xmlns:svg="http://www.w3.org/2000/svg"
   xmlns="http://www.w3.org/2000/svg"
   xmlns:sodipodi="http://sodipodi.sourceforge.net/DTD/sodipodi-0.dtd"
   xmlns:inkscape="http://www.inkscape.org/namespaces/inkscape"
   width="85mm"
   height="85mm"
   viewBox="0 0 85 85"
   version="1.1"
   id="svg8"
   inkscape:version="0.92.4 5da689c313, 2019-01-14"
   sodipodi:docname="Drone Camps - Alphabet Play.svg"
   inkscape:export-filename="/home/helios/Pictures/Drone Camps RC/pngs/Drone Camps - Alphabet Play.png"
   inkscape:export-xdpi="153"
   inkscape:export-ydpi="153">
  <defs
     id="defs2" />
  <sodipodi:namedview
     id="base"
     pagecolor="#ffffff"
     bordercolor="#666666"
     borderopacity="1.0"
     inkscape:pageopacity="0.0"
     inkscape:pageshadow="2"
     inkscape:zoom="0.7"
     inkscape:cx="251.67208"
     inkscape:cy="214.64655"
     inkscape:document-units="mm"
     inkscape:current-layer="layer1"
     showgrid="false"
     inkscape:window-width="3440"
     inkscape:window-height="1378"
     inkscape:window-x="0"
     inkscape:window-y="30"
     inkscape:window-maximized="1" />
  <metadata
     id="metadata5">
    <rdf:RDF>
      <cc:Work
         rdf:about="">
        <dc:format>image/svg+xml</dc:format>
        <dc:type
           rdf:resource="http://purl.org/dc/dcmitype/StillImage" />
        <dc:title />
      </cc:Work>
    </rdf:RDF>
  </metadata>
  <g
     inkscape:label="Layer 1"
     inkscape:groupmode="layer"
     id="layer1"
     transform="translate(0,-212)">
    <path
       style="fill:#000000;stroke-width:0.22775714"
       d="m 9.2247072,290.31372 c -4.2326139,-0.49932 -6.4176604,-1.48976 -7.2387383,-3.28121 -0.7115327,-1.55246 -0.5990463,-1.97784 3.7661338,-14.24246 5.6831313,-15.9676 8.5303793,-23.09329 9.6965413,-24.26712 1.121098,-1.12845 3.366525,-1.66197 8.399253,-1.99568 2.647346,-0.17554 3.056467,-0.25075 3.707428,-0.68158 1.110571,-0.73503 2.840808,-2.93094 4.915266,-6.23819 l 0.338179,-0.53916 h 8.32933 c 7.22747,0 8.342204,-0.0389 8.426667,-0.29409 0.05357,-0.16175 0.427925,-0.49082 0.831986,-0.73126 0.732831,-0.43609 0.742935,-0.46079 4.060429,-9.92086 3.005061,-8.56918 3.381471,-9.51958 3.903369,-9.85579 0.737879,-0.47537 1.906638,-0.47821 2.32738,-0.006 0.292879,0.32893 0.02202,1.3443 -2.644905,9.91472 -2.660812,8.55081 -2.932126,9.56703 -2.597169,9.72794 0.205722,0.0988 0.375747,0.40138 0.377846,0.67232 l 0.0038,0.49267 h 8.296683 8.29668 l 0.01478,2.04843 c 0.01854,2.56919 0.279759,4.10352 0.806753,4.73855 0.369328,0.44506 0.691466,0.51227 3.256985,0.67946 4.732238,0.30842 6.703033,0.85602 7.07157,1.96492 0.385711,1.16055 -1.584965,8.66273 -6.457256,24.58213 -2.567282,8.38815 -3.576786,11.41782 -4.050303,12.15552 -1.544491,2.4063 -4.102334,3.87712 -8.309881,4.77838 -1.244009,0.26649 -4.800619,0.30931 -28.158038,0.33906 -14.703827,0.0188 -27.0206388,1.9e-4 -27.3708098,-0.041 z m 28.4744098,-44.99955 3.213098,-0.24806 0.805085,-0.79327 c 0.442798,-0.43628 0.960374,-0.86109 1.150163,-0.944 0.189795,-0.0829 1.116211,-0.14238 2.058716,-0.13215 3.160892,0.0343 3.163818,0.0338 3.330495,-0.46985 0.09884,-0.29864 -0.05266,-0.53638 -0.434026,-0.68134 -0.409279,-0.15556 -0.521981,-0.35707 -0.374024,-0.66865 l 0.211801,-0.446 h -6.20465 -6.20464 l -1.118429,1.96057 c -0.615133,1.07832 -1.256894,2.1711 -1.426144,2.42842 -0.292114,0.44414 -0.25479,0.46214 0.73587,0.35514 0.573984,-0.062 2.489494,-0.22437 4.256696,-0.36081 z m 30.741191,-0.0211 c 0.0012,-0.24262 0.08289,-1.32339 0.181575,-2.40169 l 0.179419,-1.96057 -5.657328,-0.0554 c -6.37892,-0.0626 -6.969172,-0.0155 -6.914056,0.55052 0.02787,0.28624 -0.154381,0.44231 -0.717034,0.6131 -0.496878,0.1509 -0.806258,0.38571 -0.90623,0.68779 -0.148997,0.45021 -0.10309,0.45867 2.488965,0.45867 h 2.640763 l 0.329856,0.93126 0.32984,0.93128 3.428802,0.31849 c 4.811402,0.44693 4.612838,0.45009 4.615395,-0.0734 z"
       id="path4702"
       inkscape:connector-curvature="0"
       sodipodi:nodetypes="ccsccsccssssscscccccccccscccccccsscsccccccccccccccscsscccccc" />
    <path
       style="fill:#ffffff;stroke-width:0.26632488"
       d="m 47.252599,271.58623 c -0.843698,-0.82619 -1.393857,-2.62428 -1.136539,-3.71453 0.40327,-1.70862 3.300236,-8.78664 4.390256,-10.72647 0.75293,-1.33996 3.183304,-3.63605 4.488135,-4.24018 0.976843,-0.45229 1.79123,-0.49429 10.55541,-0.54455 5.223295,-0.0299 9.496888,0.006 9.496874,0.0813 -4e-5,0.22652 -2.806222,7.14645 -3.100243,7.64503 -0.241375,0.40932 -0.65784,0.46498 -3.479336,0.46498 -1.762813,0 -3.205121,-0.10026 -3.205121,-0.22273 0,-0.12249 0.188702,-0.6326 0.419335,-1.13355 0.230647,-0.50097 0.419349,-1.03144 0.419349,-1.17883 0,-0.18022 -1.518368,-0.24522 -4.635172,-0.19846 l -4.635172,0.0695 -1.799086,4.28808 c -0.989503,2.35842 -1.74656,4.33574 -1.68237,4.394 0.06424,0.0582 3.012693,0.0945 6.552197,0.0806 3.539519,-0.0139 6.492484,0.0638 6.562148,0.17286 0.06973,0.10899 0.215373,1.3684 0.323803,2.7987 l 0.197149,2.60059 h -9.540871 -9.540858 z"
       id="path4524-6"
       inkscape:connector-curvature="0"
       sodipodi:nodetypes="ccsccccssssccccscscccc" />
    <path
       style="fill:#ffffff;stroke-width:0.27002877"
       d="m 12.777695,271.76655 c 0,-0.0442 0.801513,-1.92028 1.781141,-4.16911 0.979627,-2.24882 2.325967,-5.34883 2.991867,-6.88891 l 1.210728,-2.80014 h 1.445361 1.445362 l -0.201413,-2.86237 -0.201413,-2.86237 h 9.54734 c 7.960908,0 9.690135,0.0626 10.406684,0.37757 2.425168,1.06553 2.356509,3.86273 -0.235377,9.58914 -2.236375,4.94097 -2.742151,5.76415 -4.526544,7.36719 -2.627693,2.36066 -2.442177,2.32933 -13.795956,2.32933 -5.427279,0 -9.86778,-0.0361 -9.86778,-0.0803 z m 21.028122,-9.44532 c 1.016939,-2.29585 1.769196,-4.28396 1.671681,-4.418 -0.205808,-0.28294 -8.916745,-0.33238 -9.383391,-0.0533 -0.270088,0.16154 -3.942039,8.18479 -3.942039,8.6134 0,0.0927 2.206074,0.13791 4.902383,0.10037 l 4.902385,-0.0683 z"
       id="path4524"
       inkscape:connector-curvature="0"
       sodipodi:nodetypes="csscccccscscscccccsccc" />
    <rect
       style="fill:#ffffff;fill-opacity:1;stroke-width:0.27322423"
       id="rect823"
       width="21.922617"
       height="10.882827"
       x="131.24501"
       y="294.6174"
       transform="matrix(1,0,-0.34731434,0.93774877,0,0)" />
    <path
       style="fill:#000000;fill-opacity:1;stroke-width:0.26616886"
       d="m 38.441184,285.25747 c -0.631068,-0.22269 -0.666262,-0.33513 -0.523156,-1.67143 0.199405,-1.86202 1.484891,-4.87218 2.483152,-5.81468 l 0.786243,-0.74233 h 3.570754 c 1.963916,0 3.570755,0.077 3.570755,0.17108 0,0.0941 -0.208115,0.82524 -0.462479,1.62478 l -0.462477,1.45371 h -1.211511 c -1.071973,0 -1.194439,-0.0576 -1.063278,-0.49993 0.137102,-0.4624 0.0087,-0.49994 -1.710713,-0.49994 H 41.55953 l -0.644251,1.76423 c -0.781938,2.14127 -0.69826,2.22592 2.205802,2.23143 l 2.019371,0.004 0.177137,0.78115 c 0.344328,1.51842 0.444934,1.46988 -3.011341,1.45271 -1.753665,-0.009 -3.492943,-0.12334 -3.865064,-0.25461 z"
       id="path1230"
       inkscape:connector-curvature="0" />
    <path
       style="fill:#000000;fill-opacity:1;stroke-width:0.26616886"
       d="m 27.086984,285.12173 c 0.008,-0.25779 0.619215,-2.15597 1.358201,-4.21821 l 1.343607,-3.74951 3.77501,-0.07 c 2.541542,-0.0471 3.903578,0.0243 4.168501,0.21809 0.546605,0.4001 0.491872,1.39303 -0.183009,3.32014 -0.457766,1.30714 -0.805063,1.80818 -1.686245,2.43273 -0.931673,0.66034 -1.084713,0.89693 -0.953759,1.47442 0.197155,0.86941 -0.141433,1.05043 -1.584212,0.84696 -1.092083,-0.15401 -1.172293,-0.22658 -1.576009,-1.42557 -0.233951,-0.69481 -0.425364,-1.52409 -0.425364,-1.84284 0,-0.53288 0.120449,-0.57956 1.49575,-0.57956 1.85541,0 2.755558,-0.49456 2.755558,-1.51398 v -0.73572 H 33.472791 31.37057 l -1.050709,2.81213 c -0.57789,1.54668 -1.134461,2.8944 -1.236827,2.99492 -0.10236,0.10049 -0.596636,0.2552 -1.098378,0.34372 -0.770654,0.13592 -0.909996,0.0882 -0.897672,-0.30778 z"
       id="path1228"
       inkscape:connector-curvature="0" />
  </g>
</svg>
